<svg width="33" height="30" viewBox="0 0 33 30" fill="none" xmlns="http://www.w3.org/2000/svg">
<path d="M16.5043 26.8636L4.82244 15.1818C3.89063 14.25 3.26941 13.1667 2.95881 11.9318C2.65578 10.697 2.65956 9.4697 2.97017 8.25C3.28078 7.02273 3.8982 5.95454 4.82244 5.04545C5.76941 4.11364 6.84896 3.49621 8.06108 3.19318C9.28078 2.88258 10.4967 2.88258 11.7088 3.19318C12.9285 3.50379 14.0118 4.12121 14.9588 5.04545L16.5043 6.54545L18.0497 5.04545C19.0043 4.12121 20.0876 3.50379 21.2997 3.19318C22.5118 2.88258 23.724 2.88258 24.9361 3.19318C26.1558 3.49621 27.2391 4.11364 28.1861 5.04545C29.1103 5.95454 29.7277 7.02273 30.0384 8.25C30.349 9.4697 30.349 10.697 30.0384 11.9318C29.7353 13.1667 29.1179 14.25 28.1861 15.1818L16.5043 26.8636Z" fill="rgba(255, 255, 255, 0.9)"/>
</svg>
