<svg width="33" height="30" viewBox="0 0 33 30" fill="none" xmlns="http://www.w3.org/2000/svg">
<path d="M15.5767 2.21993C15.9183 1.39864 17.0817 1.39864 17.4233 2.21993L20.233 8.97517C20.377 9.32141 20.7026 9.55798 21.0764 9.58795L28.3692 10.1726C29.2559 10.2437 29.6154 11.3502 28.9399 11.9289L23.3835 16.6885C23.0987 16.9325 22.9743 17.3152 23.0614 17.68L24.7589 24.7966C24.9653 25.6618 24.0241 26.3457 23.265 25.882L17.0213 22.0684C16.7012 21.8729 16.2988 21.8729 15.9787 22.0684L9.73505 25.882C8.97595 26.3457 8.03469 25.6618 8.24108 24.7966L9.93865 17.68C10.0257 17.3152 9.90128 16.9325 9.61649 16.6885L4.06011 11.9289C3.38457 11.3502 3.7441 10.2437 4.63075 10.1726L11.9236 9.58795C12.2974 9.55798 12.623 9.32141 12.767 8.97517L15.5767 2.21993Z" fill="rgba(255, 255, 255, 0.9)"/>
</svg>
