<svg width="33" height="30" viewBox="0 0 33 30" fill="none" xmlns="http://www.w3.org/2000/svg">
<g clip-path="url(#clip0_438_151)">
<path d="M14.7966 27.5H13.5166C13.026 27.5 12.578 27.4147 12.1726 27.244C11.7673 27.0733 11.4046 26.8387 11.0846 26.54C10.786 26.22 10.5513 25.8573 10.3806 25.452C10.21 25.0467 10.1246 24.5987 10.1246 24.108V21.836L14.4766 21.1V23.148C14.4766 23.3613 14.5726 23.468 14.7646 23.468H18.1246C18.338 23.468 18.4446 23.3613 18.4446 23.148V20.172C18.4446 20.044 18.402 19.948 18.3166 19.884C18.2526 19.82 18.1673 19.7667 18.0606 19.724C17.9326 19.6813 17.4953 19.532 16.7486 19.276C16.002 19.02 14.7753 18.604 13.0686 18.028C12.1513 17.7293 11.4366 17.3667 10.9246 16.94C10.434 16.492 10.1886 15.788 10.1886 14.828V9.548C10.1886 9.07867 10.274 8.64133 10.4446 8.236C10.6153 7.83066 10.85 7.47867 11.1486 7.18C11.4686 6.86 11.8313 6.61467 12.2366 6.444C12.642 6.27333 13.09 6.188 13.5806 6.188H14.7966V3.34H18.0286V6.188H19.3406C19.81 6.188 20.2473 6.27333 20.6526 6.444C21.0793 6.61467 21.442 6.86 21.7406 7.18C22.0606 7.47867 22.306 7.83066 22.4766 8.236C22.6473 8.64133 22.7326 9.07867 22.7326 9.548V11.724L18.3806 12.428V10.508C18.3806 10.2947 18.274 10.188 18.0606 10.188H14.8926C14.7006 10.188 14.6046 10.2947 14.6046 10.508V13.9C14.6046 14.028 14.626 14.1133 14.6686 14.156C14.7326 14.1987 14.818 14.2413 14.9246 14.284C15.0953 14.348 15.6073 14.5293 16.4606 14.828C17.3353 15.1053 18.5406 15.5107 20.0766 16.044C20.93 16.3427 21.602 16.716 22.0926 17.164C22.6046 17.612 22.8606 18.2947 22.8606 19.212V24.108C22.8606 24.5987 22.7646 25.0467 22.5726 25.452C22.402 25.8573 22.1673 26.22 21.8686 26.54C21.57 26.8387 21.2073 27.0733 20.7806 27.244C20.3753 27.4147 19.938 27.5 19.4686 27.5H18.0286V30.348H14.7966V27.5Z" fill="rgba(255, 255, 255, 0.9)"/>
</g>
<defs>
<clipPath id="clip0_438_151">
<rect width="33" height="30" rx="4" fill="white"/>
</clipPath>
</defs>
</svg>
